PathFileType	4	(X/Y/Z)	C:\Git\research_data\Projects\squatting_fais\c3dfiles\036\SJ_pre2\markers_experimental.trc
DataRate	CameraRate	NumFrames	NumMarkers	Units	OrigDataRate	OrigDataStartFrame	OrigNumFrames
200.000000	200.000000	4	62	mm	200.000000	628	1677
Frame#	Time	FHD			LBHD			RBHD			C7			T10			CLAV			LSHO			LUUPA			LMUPA			LDUPA			LLEP			LMEP			LRAD			LUL			LRFIN			RSHO			RUPA1			RMUPA			RDUPA			RLEP			RMEP			RRAD			RUL			RUFIN			LASI			RASI			USACR			LSACR			RSACR			LTHI1			LTHI2			LTHI3			LTHI4			LLFC			LMFC			LTIB1			LTIB2			LTIB3			LTIB4			LLMAL			LMMAL			LHEE			LMT1			LMT2			LMT5			RTHI			RTHI2			RTHI3			RTHI4			RLFC			RMFC			RTIB1			RTIB2			RTIB3			RTIB4			RLMAL			RMMAL			RHEE			RMT1			RMT2			RMT5			*61			
		X1	Y1	Z1	X2	Y2	Z2	X3	Y3	Z3	X4	Y4	Z4	X5	Y5	Z5	X6	Y6	Z6	X7	Y7	Z7	X8	Y8	Z8	X9	Y9	Z9	X10	Y10	Z10	X11	Y11	Z11	X12	Y12	Z12	X13	Y13	Z13	X14	Y14	Z14	X15	Y15	Z15	X16	Y16	Z16	X17	Y17	Z17	X18	Y18	Z18	X19	Y19	Z19	X20	Y20	Z20	X21	Y21	Z21	X22	Y22	Z22	X23	Y23	Z23	X24	Y24	Z24	X25	Y25	Z25	X26	Y26	Z26	X27	Y27	Z27	X28	Y28	Z28	X29	Y29	Z29	X30	Y30	Z30	X31	Y31	Z31	X32	Y32	Z32	X33	Y33	Z33	X34	Y34	Z34	X35	Y35	Z35	X36	Y36	Z36	X37	Y37	Z37	X38	Y38	Z38	X39	Y39	Z39	X40	Y40	Z40	X41	Y41	Z41	X42	Y42	Z42	X43	Y43	Z43	X44	Y44	Z44	X45	Y45	Z45	X46	Y46	Z46	X47	Y47	Z47	X48	Y48	Z48	X49	Y49	Z49	X50	Y50	Z50	X51	Y51	Z51	X52	Y52	Z52	X53	Y53	Z53	X54	Y54	Z54	X55	Y55	Z55	X56	Y56	Z56	X57	Y57	Z57	X58	Y58	Z58	X59	Y59	Z59	X60	Y60	Z60	X61	Y61	Z61	X62	Y62	Z62	

629	3.14	43.73905563354493	1106.948974609375	-934.6523437500002	-125.5732345581055	1073.126220703125	-1001.712524414063	-79.11531829833986	1090.887329101563	-858.0540161132815	-155.4471740722657	1028.213623046875	-953.6975097656252	-392.4075622558595	835.3126220703127	-937.5693969726565	-82.33291625976564	879.4199829101565	-927.9532470703127	-74.75982666015626	932.8662719726565	-1068.734008789063	-164.1573181152344	890.4040527343752	-1215.170166015625	-175.2881927490235	841.8497314453127	-1217.993896484375	-208.4186706542969	863.908874511719	-1263.531494140625	-254.6439971923829	832.542175292969	-1287.607421875	-296.6512145996094	885.6843872070315	-1276.210327148438	-398.6928710937501	663.8072509765626	-1208.16015625	-419.5079345703126	717.8788452148439	-1167.993530273438	-399.1338500976564	681.1804809570314	-1119.348999023438	-91.84326171875001	952.7165527343752	-793.8337402343752	-182.2909851074219	924.2442626953127	-661.2406005859376	-181.250473022461	874.445983886719	-654.3623657226564	-218.6677856445313	890.2996826171877	-610.4405517578126	-269.5489807128907	843.2445068359377	-577.0992431640626	-330.6501770019532	879.8425903320315	-604.6168823242189	-405.227264404297	704.6493530273439	-705.3576049804689	-380.5559387207032	653.8462524414064	-669.0712280273439	-390.6465759277345	672.4314575195314	-753.9261474609376	nan	nan	nan	nan	nan	nan	-482.5247497558595	786.3254394531252	-940.611511230469	-515.9636230468751	777.6342773437502	-966.2731933593752	-508.848358154297	778.8919677734377	-910.6334228515627	-460.8843688964845	596.8481445312501	-1166.883544921875	-385.4393920898439	564.7128906250001	-1168.790405273438	-357.3778686523438	595.6362915039064	-1146.585571289063	-365.9700317382813	511.7810058593751	-1175.151245117188	-269.5107116699219	405.953094482422	-1182.020263671875	-233.2381591796876	374.3928222656251	-1032.26220703125	-243.1554260253907	240.5763397216797	-1101.96142578125	-286.3920898437501	214.4051208496094	-1172.367431640625	-266.8856201171876	200.6455688476563	-1134.443115234375	-307.8992004394532	133.3008270263672	-1101.311767578125	-394.3521423339845	83.06446075439455	-1156.377319335938	-373.1936035156251	84.88550567626955	-1072.38623046875	-452.1646728515626	60.97386932373048	-1117.763549804688	-263.1109619140626	52.27127838134767	-1093.3525390625	-251.1303710937501	53.99505615234376	-1141.420288085938	-293.6562805175782	35.27577590942384	-1189.993286132813	-470.8369750976564	516.8519897460939	-705.8801269531251	-405.6903076171876	513.2541503906251	-690.8274536132814	-386.6338500976564	539.9121704101564	-691.4154663085939	-355.5531311035157	447.4009704589845	-690.1540527343751	-254.5722351074219	398.360321044922	-678.9164428710939	-211.2129974365235	407.5515747070314	-822.028503417969	-232.6398010253907	251.3603210449219	-727.6450195312501	-327.9887390136719	205.4551849365235	-684.7369995117189	-290.8069152832032	189.6956329345703	-708.0177001953126	-300.4043273925782	143.4457550048828	-743.7796630859376	-411.6908569335939	84.45787811279298	-728.5557861328126	-371.3357543945313	81.93124389648439	-802.9279785156252	-456.8060302734376	59.05359649658205	-768.4877929687502	-258.6445007324219	49.70223999023439	-759.7635498046876	-265.6948852539063	57.56915283203126	-710.1400756835939	-309.8431701660157	36.63479232788087	-668.8992309570314	nan	nan	nan	
630	3.145	43.81950378417969	1106.392822265625	-934.520935058594	-125.2361373901367	1072.357666015625	-1001.616333007813	-78.91715240478517	1090.165771484375	-858.0759887695315	-154.8962097167969	1027.531860351563	-953.705993652344	-392.2122192382814	835.0334472656252	-937.6002197265627	-81.8883514404297	878.6190185546877	-927.8675537109377	-74.25144958496095	931.9634399414065	-1068.422607421875	-163.8510131835938	889.9957275390627	-1215.205444335938	-175.0350952148438	841.3352661132815	-1217.91845703125	-208.2406616210938	863.5131835937502	-1263.465454101563	-254.3219451904297	832.1315917968752	-1288.252075195313	-296.4042053222657	885.391296386719	-1276.162841796875	-398.937713623047	663.7250366210939	-1208.171752929688	-419.6996154785157	717.8062133789064	-1168.040649414063	-399.3089294433595	681.1423339843751	-1119.380859375	-91.6099090576172	952.0998535156252	-793.8034667968752	-181.9368438720703	923.6514892578127	-661.0968017578126	-181.0304718017578	873.9160766601565	-654.3787231445314	-218.1709594726563	889.683288574219	-610.4362792968751	-269.3687744140626	842.7960205078127	-576.8508911132814	-330.3806152343751	879.5916137695315	-604.4888916015626	-405.2746887207032	704.5516357421876	-705.3969116210939	-380.6984252929688	653.7583618164064	-669.1936645507814	-390.8513793945314	672.4708251953126	-754.0228881835939	nan	nan	nan	nan	nan	nan	-482.4553833007814	786.199890136719	-940.6731567382815	-515.9216308593751	777.4431762695315	-966.3167724609377	-506.5152587890626	778.0404052734377	-910.9730224609377	-460.9800415039064	596.7039794921876	-1166.948120117188	-385.4869079589845	564.5563964843751	-1168.78759765625	-357.4789733886719	595.6177978515626	-1146.611572265625	-366.1604003906251	511.7210998535157	-1175.153198242188	-269.5668945312501	405.9766235351564	-1181.94921875	-233.3502807617188	374.4271240234376	-1032.273071289063	-243.1918640136719	240.6437072753907	-1101.94775390625	-287.1378784179688	214.4097747802735	-1172.484497070313	-266.9570007324219	200.6691894531251	-1134.461669921875	-307.8239440917969	133.2634582519532	-1101.304077148438	-394.4277648925782	83.10970306396486	-1156.3251953125	-373.1676330566407	84.84631347656251	-1072.384521484375	-452.1586914062501	60.98978805541994	-1117.759399414063	-263.0976257324219	52.2576370239258	-1093.352172851563	-251.1242370605469	54.00683212280275	-1141.402221679688	-293.7379455566407	35.24768066406251	-1190.046508789063	-470.9146118164064	516.7565307617189	-705.8811645507814	-405.7543334960939	513.1991577148439	-690.8472900390626	-386.7107849121095	539.8591918945314	-691.4808349609376	-355.6398925781251	447.3578491210939	-690.1560668945314	-254.6021423339844	398.3394165039064	-678.9234619140626	-211.3708190917969	407.5450744628907	-822.0249633789065	-232.7466735839844	251.3388977050782	-727.7263183593751	-328.0157165527344	205.4648437500001	-684.7985229492189	-290.7848205566407	189.719223022461	-708.0058593750001	-300.4393920898438	143.4391784667969	-743.7677001953126	-411.7181396484376	84.45442962646486	-728.6046142578126	-371.2839050292969	81.91349029541017	-802.8875732421877	-456.855194091797	59.02291488647462	-768.564392089844	-258.6253967285157	49.69735336303712	-759.7670898437501	-265.7331848144532	57.58497619628908	-710.1231689453126	-309.8307800292969	36.62496185302735	-668.9015502929689	nan	nan	nan	
631	3.15	44.10604858398438	1105.85302734375	-934.4661254882815	-124.641471862793	1071.918334960938	-1001.545471191406	-78.9032440185547	1089.354248046875	-858.0115966796877	-154.4667510986328	1026.9345703125	-953.7406005859377	-392.0125732421876	834.7915649414065	-937.6403808593752	-81.67618560791017	877.9517822265627	-927.8472290039065	-74.05660247802736	931.1128540039065	-1068.34423828125	-163.6125946044922	889.525329589844	-1215.178344726563	-174.9587860107422	840.6378173828127	-1217.946044921875	-208.1048583984376	863.1953735351565	-1263.385620117188	-254.1243438720704	831.815856933594	-1288.258422851563	-296.3622741699219	885.1941528320315	-1276.024291992188	-399.074676513672	663.5823364257814	-1208.211791992188	-419.8562622070314	717.7212524414064	-1168.093505859375	-399.4298706054689	681.1102905273439	-1119.437377929688	-91.1818313598633	951.5786743164065	-793.6602783203127	-181.5514068603516	923.0334472656252	-660.8200073242189	-180.5827331542969	873.282165527344	-654.4907226562501	-217.850326538086	889.1850585937502	-610.3967285156251	-269.1241149902344	842.364440917969	-576.7612304687501	-329.9442138671876	879.308044433594	-604.4277954101564	-405.3718872070314	704.4777832031251	-705.4180908203126	-380.8569335937501	653.6239624023439	-669.1785888671876	-391.0203552246095	672.2274780273439	-754.0251464843751	nan	nan	nan	nan	nan	nan	-482.4551391601564	786.0828857421877	-940.6672973632815	-515.8071289062501	777.3315429687502	-966.3423461914065	-505.8819885253907	777.9495239257815	-911.1072387695315	-461.232147216797	596.6420288085939	-1166.911865234375	-385.7244873046876	564.4767456054689	-1168.808837890625	-357.6258239746094	595.5199584960939	-1146.612915039063	-366.2526855468751	511.5947265625001	-1175.149291992188	-269.5426025390626	405.9707641601564	-1181.914672851563	-233.4311676025391	374.4221191406251	-1032.277709960938	-243.1894836425782	240.6529235839844	-1101.935668945313	-286.4949035644532	214.3388061523438	-1172.233276367188	-266.9818115234376	200.6125030517579	-1134.45361328125	-307.8718566894532	133.2872009277344	-1101.2890625	-394.4357299804689	83.07498168945314	-1156.330688476563	-373.2428283691407	84.86241912841798	-1072.359497070313	-452.1507873535157	60.98309707641603	-1117.779541015625	-262.9133911132813	52.21094512939455	-1093.256469726563	-251.1678161621094	53.98428344726564	-1141.419555664063	-293.6615295410157	35.25615310668946	-1189.994873046875	-471.0476379394532	516.6577148437501	-705.8500366210939	-405.842742919922	513.0952148437501	-690.8848876953126	-386.7910156250001	539.7987060546876	-691.5019531250001	-355.8656921386719	447.3756103515626	-690.0834350585939	-254.6476135253907	398.3440856933595	-678.9307250976564	-211.4417877197266	407.5780639648439	-822.106384277344	-232.6938629150391	251.3974609375001	-727.6897583007814	-328.0272216796876	205.4531555175782	-684.8115844726564	-290.8459167480469	189.7523345947266	-708.0328369140626	-300.4658508300782	143.4442443847657	-743.7835693359376	-411.7171630859376	84.45518493652345	-728.5798950195314	-371.3346252441407	81.92694091796876	-802.9333496093752	-456.8216552734376	58.96321105957033	-768.6194458007815	-258.5644226074219	49.73069381713869	-759.7573242187501	-265.7872924804688	57.64793777465822	-710.1391601562501	-309.8812561035157	36.6545524597168	-668.9033203125001	nan	nan	nan	
632	3.155	44.28536605834962	1105.205688476563	-934.4378051757815	-124.4747772216797	1071.1943359375	-1001.601379394531	-78.70542144775392	1088.679565429688	-857.9924316406252	-153.9048309326172	1026.349731445313	-953.6811523437502	-391.7599182128907	834.543884277344	-937.6240844726565	-81.34582519531251	877.4126586914065	-927.8953247070315	-73.61081695556642	930.4341430664065	-1068.452880859375	-163.3990631103516	889.0950317382815	-1215.170532226563	-174.651351928711	840.0975341796877	-1217.970947265625	-207.9405059814454	862.5037841796877	-1263.348266601563	-254.0107574462891	831.4660644531252	-1288.275146484375	-296.0673217773438	884.844665527344	-1275.8837890625	-399.3501892089845	663.5321655273439	-1208.177978515625	-419.9604797363282	717.6309814453126	-1168.136962890625	-399.5303955078126	681.0315551757814	-1119.439453125	-90.64295959472658	950.686706542969	-793.683776855469	-181.1133422851563	922.361022949219	-660.9235229492189	-180.3274230957032	872.7770996093752	-654.3938598632814	-217.6144409179688	888.6624755859377	-610.3563842773439	-268.8553161621094	841.9379882812502	-576.7487792968751	-329.6771850585938	879.0266113281252	-604.3342895507814	-405.4261779785157	704.3320922851564	-705.4455566406251	-380.9447021484376	653.4238281250001	-669.0717163085939	-391.0753479003907	672.1509399414064	-754.0554199218751	nan	nan	nan	nan	nan	nan	-482.430389404297	785.9815063476565	-940.707214355469	-515.6802978515626	777.1882324218752	-966.4118652343752	-505.8928833007814	777.904235839844	-911.1250610351565	-461.3915405273439	596.6353149414064	-1166.930419921875	-385.9206542968751	564.4413452148439	-1168.8095703125	-357.7697448730469	595.4714355468751	-1146.665161132813	-366.3745727539063	511.5148925781251	-1175.160034179688	-269.7328491210938	405.9595031738282	-1181.967041015625	-233.6636657714844	374.3964843750001	-1032.33935546875	-243.1920318603516	240.5940399169922	-1101.927368164063	-286.6124267578126	214.3792114257813	-1172.262817382813	-267.0449829101563	200.5337219238282	-1134.41455078125	-307.9160156250001	133.279525756836	-1101.31298828125	-394.4277343750001	83.02919006347658	-1156.31591796875	-373.2775878906251	84.8619842529297	-1072.350463867188	-452.1604614257814	60.91774749755861	-1117.7568359375	-262.9331054687501	52.16106033325197	-1093.27490234375	-251.2476348876954	54.0436134338379	-1141.414672851563	-293.6830139160157	35.2257423400879	-1190.031616210938	-471.2359924316407	516.6103515625001	-705.8784790039064	-405.9346618652345	513.1093750000001	-690.8868408203126	-386.8570556640626	539.7424926757814	-691.4785766601564	-355.9519042968751	447.2948303222657	-690.1402587890626	-254.6388397216797	398.4110412597657	-678.9470214843751	-211.4503479003907	407.5982666015626	-822.1065063476565	-232.7609863281251	251.4005737304688	-727.7377319335939	-328.0332336425782	205.4268493652344	-684.8165893554689	-290.8432922363282	189.818344116211	-708.0141601562501	-300.4919128417969	143.4591064453125	-743.7865600585939	-411.707244873047	84.44639587402345	-728.6331787109376	-371.3232727050782	81.88088226318361	-802.9666748046877	-456.8415527343751	59.05022048950197	-768.5970458984377	-258.6116638183594	49.71504211425783	-759.7421875000001	-265.8605346679688	57.61326599121095	-710.1726074218751	-309.8547058105469	36.66047286987305	-668.9360351562501	nan	nan	nan	
